<?xml version="1.0" encoding="UTF-8"?>
<svg width="1334px" height="1334px" viewBox="0 0 1334 1334" version="1.1" xmlns="http://www.w3.org/2000/svg" xmlns:xlink="http://www.w3.org/1999/xlink">
    <!-- Generator: Sketch 43.1 (39012) - http://www.bohemiancoding.com/sketch -->
    <title>Tablet Portrait</title>
    <desc>Created with Sketch.</desc>
    <defs>
        <linearGradient x1="50%" y1="0%" x2="50%" y2="100%" id="linearGradient-1">
            <stop stop-color="#01A15C" offset="0%"></stop>
            <stop stop-color="#000000" offset="100%"></stop>
        </linearGradient>
        <linearGradient x1="50%" y1="58.5164608%" x2="50%" y2="100%" id="linearGradient-2">
            <stop stop-color="#01A15C" offset="0%"></stop>
            <stop stop-color="#000000" offset="100%"></stop>
        </linearGradient>
    </defs>
    <g id="Welcome" stroke="none" stroke-width="1" fill="none" fill-rule="evenodd">
        <g id="Tablet-Portrait" stroke-width="10" fill="#AFF1D5">
            <g id="Group-2" transform="translate(93.000000, 138.000000)">
                <path d="M430.216182,538.761381 C430.216182,538.761381 666.080159,740.299481 666.080159,487.969065 C666.080159,235.638649 411.193925,49.0981945 411.193925,49.0981945 C411.193925,49.0981945 143.364249,223.832836 143.364249,487.969065 C143.364249,752.105295 430.216182,538.761381 430.216182,538.761381 Z" id="Oval" stroke="url(#linearGradient-1)" transform="translate(404.722204, 334.624301) rotate(-12.000000) translate(-404.722204, -334.624301) "></path>
                <path d="M514.53125,561.390625 C514.53125,561.390625 840.715909,708.201287 840.715909,455.870871 C840.715909,203.540455 585.829675,17 585.829675,17 C585.829675,17 318,191.734642 318,455.870871 C318,720.0071 514.53125,561.390625 514.53125,561.390625 Z" id="Oval" stroke="url(#linearGradient-1)"></path>
                <path d="M859.562551,601.776459 C859.562551,601.776459 1072.48075,784.131244 1072.48075,531.800827 C1072.48075,279.470411 817.59452,92.9299566 817.59452,92.9299566 C817.59452,92.9299566 549.764844,267.664598 549.764844,531.800827 C549.764844,795.937057 859.562551,601.776459 859.562551,601.776459 Z" id="Oval" stroke="url(#linearGradient-2)" transform="translate(811.122799, 381.741368) rotate(26.000000) translate(-811.122799, -381.741368) "></path>
                <path d="M738.687527,482.470393 C738.687527,482.470393 1016.10757,740.47869 1016.10757,488.148274 C1016.10757,235.817858 761.221334,49.2774031 761.221334,49.2774031 C761.221334,49.2774031 493.391659,224.012045 493.391659,488.148274 C493.391659,752.284503 738.687527,482.470393 738.687527,482.470393 Z" id="Oval" stroke="url(#linearGradient-1)" transform="translate(754.749613, 326.682691) rotate(12.000000) translate(-754.749613, -326.682691) "></path>
                <path d="M325.763785,572.194204 C325.763785,572.194204 620.034174,794.198691 620.034174,541.868275 C620.034174,289.537859 365.14794,102.997404 365.14794,102.997404 C365.14794,102.997404 97.3182647,277.732046 97.3182647,541.868275 C97.3182647,806.004504 325.763785,572.194204 325.763785,572.194204 Z" id="Oval" stroke="url(#linearGradient-2)" transform="translate(358.676219, 385.336346) rotate(-26.000000) translate(-358.676219, -385.336346) "></path>
                <path d="M584.982383,886.374075 L583.350581,886.374075 L583.350581,945.257902 L588.703656,945.257902 L588.703656,890.402021 C590.341284,889.504925 635.999573,864.192766 676.12037,808.971225 C716.979788,752.733062 729.134037,698.042356 729.134037,698.042356 C729.134037,698.042356 681.870951,723.204849 639.099838,782.074234 C598.180852,838.394387 589.388408,886.123617 588.703656,890.151665 L588.703656,886.374075 L585.701453,886.374075 C588.571797,878.535713 608.233482,821.935348 608.233482,742.25533 C608.233482,656.301236 585.920086,592.757902 585.920086,592.757902 C585.920086,592.757902 562.473587,652.279691 562.473587,742.25533 C562.473587,825.441743 582.030934,878.795898 584.982383,886.374075 Z M579.025921,552.612765 C582.738307,546.115693 586.67115,539.657767 590.834292,533.24709 C734.693193,311.723809 1054.48137,311.049504 1054.48137,311.049504 C1054.48137,311.049504 1166.64973,606.316485 1029.22074,817.938578 C898.06503,1019.90066 606.381063,1031.99099 580.025087,1032.67395 C580.013842,1032.70007 580.00816,1032.71319 580.00816,1032.71319 C580.00816,1032.71319 272.757166,1039.46186 128.898265,817.938578 C-14.960636,596.415297 114.492923,304 114.492923,304 C114.492923,304 429.855719,321.624997 567.284713,533.24709 C571.433836,539.636179 575.344023,546.094743 579.025921,552.612765 Z M591.361311,892.977048 C591.361311,892.977048 628.132856,898.94668 673.956851,884.057561 C719.780846,869.168442 748.521769,842.35619 748.521769,842.35619 C748.521769,842.35619 711.393217,836.058886 663.42525,851.644624 C615.457282,867.230361 591.361311,892.977048 591.361311,892.977048 Z M580.771733,892.845302 C580.771733,892.845302 554.531789,866.401996 508.707794,851.512878 C462.883799,836.623759 423.872057,841.421837 423.872057,841.421837 C423.872057,841.421837 450.208224,868.340077 498.176192,883.925815 C546.14416,899.511552 580.771733,892.845302 580.771733,892.845302 Z M578.910346,894.191225 C578.910346,894.191225 554.252401,891.600526 526.237099,904.664276 C498.221797,917.728025 482.773642,938.671639 482.773642,938.671639 C482.773642,938.671639 507.703756,941.484291 537.029813,927.809326 C566.35587,914.134361 578.910346,894.191225 578.910346,894.191225 Z M593.563762,895.567831 C593.563762,895.567831 608.137884,915.625771 636.592038,927.703843 C665.046191,939.781915 690.947163,937.248119 690.947163,937.248119 C690.947163,937.248119 676.355868,916.839401 646.570427,904.196232 C616.784985,891.553062 593.563762,895.567831 593.563762,895.567831 Z M582.713886,889.794302 C582.713886,889.794302 573.131744,837.679923 532.272326,781.441759 C491.412908,725.203595 443.154826,696.74386 443.154826,696.74386 C443.154826,696.74386 452.480682,749.469365 495.251794,808.33875 C538.022906,867.208136 582.713886,889.794302 582.713886,889.794302 Z" id="Combined-Shape" stroke="url(#linearGradient-1)"></path>
            </g>
        </g>
    </g>
</svg>